<svg width="64" height="64" xmlns="http://www.w3.org/2000/svg"><g fill="none" fill-rule="evenodd"><circle fill="#F4F4F4" cx="29" cy="35" r="29"/><path d="M18 12h32v32H18z"/><path fill="#FFF" d="M21 18l4-3h18l4 3v22H21z"/><path d="M43 14l4.6 2.889c.26.288.4.64.4 1V41H20V17.611c0-.18.07-.356.2-.5L25 14h18zm-13.005 5H21v21h26V19h-9.005v9h-8v-9zM37 19h-6v8h6v-8zm-5.8-4h-6.077l-4.071 3H30l1.2-3zm11.666 0H36.8l1.2 3h9.052l-4.186-3zm-7.035 0H32.17L31 18h6l-1.169-3z" fill="#000"/><circle stroke="#000" cx="35" cy="29" r="28.5"/></g></svg>
