<?xml version="1.0" encoding="utf-8"?>
<svg  viewBox="62.14826202392578 166.84136962890625 478.31640625 170.18600463867188" data-svgdocument="" id="_L72mDbZt6c6aUznt8-KM9" class="fl-svgdocument" x="0" y="0" style="overflow: visible;" xmlns="http://www.w3.org/2000/svg" xmlns:xlink="http://www.w3.org/1999/xlink">
  <path id="_versSyvl20o-RQFdeRNFs" d="M76.566,97.265H29.044c-8.124,0-14.734-6.608-14.734-14.732V11.857h5.612v70.675c0,5.029,4.092,9.12,9.122,9.12h47.522    V97.265z" fill="#f2af58" transform="matrix(1.7173845767974854, 0.14414866268634796, -0.14414866268634796, 1.7173845767974854, 51.59310531616211, 158.94908142089844)"/>
  <g id="_S7EwVkWylm3Jv_6Bi4P9T" transform="matrix(0.6078229546546936, 0, 0, 0.6078229546546936, 42.5797004699707, 135.43946838378906)">
    <path id="_zvAv7MkhfEySys59WJIcN" d="M85.615,33.042c-0.005-3.398-2.774-6.162-6.177-6.162h-8.122c-4.863,0-8.817-3.956-8.817-8.817V8.892   c0-3.338-2.663-6.045-5.97-6.157H30.916c-4,0-7.251,3.252-7.251,7.251v70.675c0,3.998,3.252,7.25,7.251,7.25h47.522   c3.997,0,7.253-3.252,7.253-7.25V33.055h-0.075C85.615,33.05,85.615,33.046,85.615,33.042z" fill="#233e54" transform="matrix(2.825469732284546, 0.23715582489967346, -0.23715582489967346, 2.825469732284546, 14.531289100646973, 38.32295227050781)"/>
    <path id="_prL7ZmNlTDAYRpSm-Aojn" d="M66.004,17.197c0,3.435,2.793,6.232,6.229,6.232h7.175c1.408,0,2.738,0.329,3.922,0.912   c-1.542-2.823-3.285-4.863-4.03-5.688L68.956,7.822c-1.221-1.153-2.556-2.149-3.954-2.951c0.64,1.226,1.002,2.62,1.002,4.094   V17.197z" fill="#233e54" transform="matrix(2.825469732284546, 0.23715582489967346, -0.23715582489967346, 2.825469732284546, 14.922844886779785, 38.77373504638672)"/>
  </g>
  <path id="_zi_9Qcz3-RshDC2qXOhwK" d="M34.828,44.945c-0.078,0.208-0.156,0.417-0.233,0.625  c-0.25-0.119-0.625-0.17-0.729-0.365c-1.227-2.286-2.47-4.567-3.579-6.91c-0.418-0.882-0.496-1.926-0.74-2.894  c-0.073-0.293-0.093-0.711-0.29-0.841c-1.019-0.672-0.737-1.435-0.39-2.351c0.257-0.681,0.411-1.499,0.297-2.206  c-0.527-3.269,0.244-6.605-0.62-9.866c-0.301-1.138,0.892-1.702,1.635-2.284c1.687-1.323,3.459-2.538,4.936-3.608  c-0.586-1.146-0.938-2.4-1.729-3.243c-1.147-1.22-1.104-2.792-1.711-4.155c-0.801-1.794-0.094-4.3,1.637-5.481  c1.686-1.149,3.298-1.455,5.166,0.029c0.476,0.378,0.904,0.925,1.133,1.485c0.813,1.991,2.41,3.854,1.159,6.251  c-0.163,0.313-0.206,0.819-0.07,1.135c0.751,1.76-0.159,2.932-1.312,4.05c-0.604,0.586-1.423,1.154-0.248,1.977  c0.076,0.053,0.134,0.254,0.094,0.331c-0.737,1.417,0.595,1.847,1.173,2.709c1.043,1.557,1.848,3.273,2.759,4.919  c0.09,0.163,0.232,0.295,0.373,0.47c1.011-1.511,0.705-3.102,0.468-4.643c-0.302-1.97-0.796-3.91-1.09-5.881  c-0.112-0.749-0.266-1.277-1.053-1.487c-0.115-0.031-0.164-0.308-0.244-0.469c2.265,0.198,4.464,0.391,6.664,0.583  c1.172,0.102,2.349,0.162,3.512,0.327c0.368,0.052,0.785,0.31,1.024,0.6c0.42,0.512,0.678,1.153,1.079,1.685  c1.825,2.419,3.66,4.831,5.521,7.223c1.851,2.379,2.046,5.094,1.683,7.93c-0.302,2.348-0.633,4.692-0.945,7.04  c-0.125,0.948-0.235,1.899-0.362,2.927c-0.906-0.077-1.815-0.156-2.743-0.234c-0.349,2.001,0.168,3.983,0.961,5.976  c0.896,2.251,1.586,4.584,2.374,6.879c0.159,0.462,0.288,0.954,0.544,1.36c0.439,0.693,0.362,1.454,0.511,2.186  c0.393,1.927,0.065,4.097,1.722,5.679c1.331,1.271,1.915,2.999,2.485,4.69c0.506,1.504,0.904,3.045,1.333,4.575  c0.617,2.197,1.406,4.366,1.773,6.604c0.373,2.271,1.951,3.203,3.69,4.003c1.412,0.65,2.881,1.129,3.656,2.613  c-1.012,1.658-2.735,2.152-4.463,2.504c-0.37,0.076-0.928-0.558-1.327-0.94c-0.16-0.153-0.126-0.51-0.199-0.867  c-0.367,0.082-0.667,0.116-0.941,0.219c-1.413,0.529-2.342-0.153-2.801-1.62c-0.363-1.163-1.164-2.189-1.759-3.281  c-0.441-0.81-0.913-1.607-1.284-2.449c-0.282-0.64-0.29-1.426-0.653-1.999c-1.697-2.667-2.31-5.736-3.378-8.638  c-0.244-0.663-0.741-1.397-1.331-1.731c-1.334-0.756-2.301-1.788-2.737-3.194c-1.007-3.248-3.481-5.561-5.156-8.378  c-0.68-1.144-1.414-2.257-2.311-3.681c-0.356,1.519-0.632,2.843-0.982,4.147c-0.327,1.214-0.736,2.405-1.096,3.61  c-0.067,0.225-0.114,0.471-0.101,0.703c0.146,2.442,0.336,4.881,0.456,7.325c0.117,2.411,0.186,4.824,0.241,7.237  c0.034,1.479,0.106,2.969-0.025,4.437c-0.232,2.579-0.776,5.139-0.844,7.716c-0.031,1.157,0.59,2.452,1.243,3.476  c0.834,1.308,0.645,2.851-0.748,3.491c0.746,3.126-0.355,5.517-3,6.232c-0.66,0.179-1.753,0.167-2.093-0.229  c-0.439-0.513-0.513-1.529-0.407-2.282c0.313-2.23,0.792-4.437,1.209-6.652c0.029-0.152,0.065-0.313,0.144-0.443  c0.964-1.624,0.292-2.864-1.617-2.957c-0.267-0.013-0.536,0.025-0.841,0.041c-0.275-1.18-0.577-2.363-0.814-3.561  c-0.066-0.333-0.05-0.773,0.119-1.046c1.267-2.057,0.874-4.148,0.383-6.329c-0.304-1.35-0.281-2.791-0.273-4.19  c0.014-2.214,0.306-4.438,0.156-6.635c-0.105-1.536-0.842-3.018-1.134-4.554c-0.41-2.155-0.828-4.328-0.954-6.51  c-0.172-2.993-0.627-5.897-1.685-8.701c-0.033-0.089-0.189-0.13-0.289-0.193c0.222-0.946,0.443-1.891,0.721-3.079  C34.154,42.865,34.238,43.858,34.828,44.945z M52.34,23.485c-0.072,1.173-0.251,2.087-0.158,2.974  c0.225,2.135,0.578,4.257,0.875,6.385c0.078,0.551,0.125,1.108,0.21,1.659c0.148,0.965,1.006,0.643,1.572,0.849  c0.038-0.377,0.099-0.754,0.106-1.132c0.007-0.331-0.101-0.67-0.062-0.994c0.176-1.506,0.653-2.962,0.418-4.533  c-0.155-1.038,0.121-2.083-0.993-2.862C53.589,25.328,53.128,24.455,52.34,23.485z M35.743,14.415  c-0.72,3.075-0.069,5.677,1.754,7.942c0-2.17,0.007-4.35-0.014-6.528c-0.001-0.151-0.173-0.338-0.314-0.443  C36.749,15.073,36.303,14.792,35.743,14.415z M34.011,29.22c-0.87,1.303-0.786,1.547,0.238,2.379  c0.332,0.27,0.651,0.924,0.553,1.291c-0.456,1.698,0.17,3.164,0.729,4.734c0.981-0.337,1.602-0.671,0.827-1.789  c-0.345-0.496-0.394-1.189-0.605-1.784C35.19,32.464,34.612,30.884,34.011,29.22z M46.811,37.211c0.02-0.12,0.038-0.24,0.057-0.359  c-0.935-0.473-1.87-0.944-2.921-1.476c0.272,0.836,0.305,1.845,0.776,2.13C45.19,37.787,46.097,37.339,46.811,37.211z   M49.891,20.574c-0.047-0.123-0.094-0.247-0.142-0.371c-1.154,0.405-2.309,0.808-3.463,1.212c0.05,0.134,0.101,0.268,0.151,0.402  C47.589,21.403,48.74,20.988,49.891,20.574z" fill="#ffffff" transform="matrix(1.2581069469451904, 0.4087933599948883, -0.4087933599948883, 1.2581069469451904, 79.87582397460938, 169.927978515625)" fill-rule="evenodd" clip-rule="evenodd"/>
  <path id="_q6nyONnpUSbG1f4grpPit" fill="#233e54" text="GwentGear" text-anchor="start" font-size="100" letter-spacing="0" side="left" offset="0" dx="0" dy="0" space="preserve" font-family="Open Sans" font-scale="contain" x="0" y="0" data-fl-textpath="" font-weight="700" font-style="italic" d="M 34.08-27.49L 36.82-40.09L 64.31-40.09L 56.4-2.88Q 49.85-0.63  44.26 0.17Q 38.67 0.98  32.42 0.98L 32.42 0.98Q 19.78 0.98  12.89-6.2Q 6.01-13.38  6.01-26.81L 6.01-26.81Q 6.01-39.89  11.23-50.46Q 16.46-61.04  25.93-66.77Q 35.4-72.51  47.8-72.51L 47.8-72.51Q 58.45-72.51  67.82-67.68L 67.82-67.68L 62.21-55.42Q 58.59-57.37  54.98-58.54Q 51.37-59.72  47.12-59.72L 47.12-59.72Q 39.65-59.72  33.76-55.66Q 27.88-51.61  24.54-44.12Q 21.19-36.62  21.19-27.98L 21.19-27.98Q 21.19-19.58  24.73-15.65Q 28.27-11.72  35.6-11.72L 35.6-11.72Q 39.31-11.72  43.9-12.89L 43.9-12.89L 47.12-27.49L 34.08-27.49ZM 111.084140625-41.99L 110.794140625-41.99Q 107.76414062500001-33.3  104.78414062499999-26.42L 104.78414062499999-26.42L 93.404140625 0L 77.584140625 0L 75.094140625-54.59L 88.814140625-54.59L 89.014140625-30.42L 88.814140625-22.27L 88.474140625-13.92L 88.674140625-13.92Q 88.964140625-14.89  89.354140625-15.94Q 89.744140625-16.99  91.844140625-22.61Q 93.944140625-28.22  94.094140625-28.42L 94.094140625-28.42L 105.374140625-54.59L 121.384140625-54.59L 121.384140625-28.42Q 121.384140625-21.48  120.894140625-13.92L 120.894140625-13.92L 121.194140625-13.92L 122.554140625-17.82Q 126.124140625-27.98  127.194140625-30.42L 127.194140625-30.42L 137.894140625-54.59L 152.884140625-54.59L 127.00414062499999 0L 110.884140625 0L 110.594140625-25.39Q 110.594140625-32.96  111.084140625-41.99L 111.084140625-41.99ZM 181.782734375-45.02L 181.782734375-45.02Q 177.492734375-45.02  173.682734375-41.11Q 169.872734375-37.21  168.702734375-31.59L 168.702734375-31.59L 170.902734375-31.59Q 178.462734375-31.59  182.692734375-33.96Q 186.912734375-36.33  186.912734375-40.38L 186.912734375-40.38Q 186.912734375-45.02  181.782734375-45.02ZM 173.782734375 0.98L 173.782734375 0.98Q 163.522734375 0.98  157.862734375-4.54Q 152.192734375-10.06  152.192734375-20.12L 152.192734375-20.12Q 152.192734375-30.22  156.222734375-38.55Q 160.252734375-46.88  167.142734375-51.25Q 174.022734375-55.62  182.712734375-55.62L 182.712734375-55.62Q 191.352734375-55.62  196.192734375-51.64Q 201.022734375-47.66  201.022734375-40.72L 201.022734375-40.72Q 201.022734375-31.59  192.872734375-26.64Q 184.712734375-21.68  169.582734375-21.68L 169.582734375-21.68L 167.092734375-21.68L 166.992734375-20.65L 166.992734375-19.68Q 166.992734375-15.23  169.502734375-12.67Q 172.022734375-10.11  176.712734375-10.11L 176.712734375-10.11Q 180.952734375-10.11  184.422734375-11.04Q 187.892734375-11.96  192.822734375-14.31L 192.822734375-14.31L 192.822734375-3.22Q 184.422734375 0.98  173.782734375 0.98ZM 257.715625-31.1L 251.225625 0L 236.525625 0L 243.215625-31.88Q 243.995625-35.21  243.995625-37.7L 243.995625-37.7Q 243.995625-43.7  238.725625-43.7L 238.725625-43.7Q 234.225625-43.7  230.565625-38.13Q 226.905625-32.57  224.805625-22.61L 224.805625-22.61L 220.015625 0L 205.325625 0L 216.895625-54.59L 228.125625-54.59L 227.09562499999998-44.48L 227.395625-44.48Q 234.525625-55.62  244.725625-55.62L 244.725625-55.62Q 251.465625-55.62  255.155625-51.54Q 258.835625-47.46  258.835625-39.89L 258.835625-39.89Q 258.835625-36.33  257.715625-31.1L 257.715625-31.1ZM 289.016015625-10.89L 289.016015625-10.89Q 292.186015625-10.89  296.926015625-12.6L 296.926015625-12.6L 296.926015625-1.61Q 291.506015625 0.98  283.936015625 0.98L 283.936015625 0.98Q 276.616015625 0.98  273.166015625-2.1Q 269.726015625-5.18  269.726015625-11.62L 269.726015625-11.62Q 269.726015625-14.06  270.316015625-17.09L 270.316015625-17.09L 275.926015625-43.41L 268.506015625-43.41L 269.926015625-50.59L 279.496015625-54.69L 285.936015625-66.21L 295.406015625-66.21L 293.016015625-54.59L 306.836015625-54.59L 304.396015625-43.41L 290.626015625-43.41L 285.006015625-17.09Q 284.716015625-15.63  284.716015625-14.5L 284.716015625-14.5Q 284.716015625-10.89  289.016015625-10.89ZM 339.011640625-27.49L 341.751640625-40.09L 369.241640625-40.09L 361.331640625-2.88Q 354.781640625-0.63  349.191640625 0.17Q 343.601640625 0.98  337.351640625 0.98L 337.351640625 0.98Q 324.711640625 0.98  317.821640625-6.2Q 310.941640625-13.38  310.941640625-26.81L 310.941640625-26.81Q 310.941640625-39.89  316.161640625-50.46Q 321.391640625-61.04  330.861640625-66.77Q 340.331640625-72.51  352.731640625-72.51L 352.731640625-72.51Q 363.381640625-72.51  372.751640625-67.68L 372.751640625-67.68L 367.141640625-55.42Q 363.52164062500003-57.37  359.911640625-58.54Q 356.301640625-59.72  352.051640625-59.72L 352.051640625-59.72Q 344.581640625-59.72  338.691640625-55.66Q 332.811640625-51.61  329.471640625-44.12Q 326.121640625-36.62  326.121640625-27.98L 326.121640625-27.98Q 326.121640625-19.58  329.661640625-15.65Q 333.201640625-11.72  340.531640625-11.72L 340.531640625-11.72Q 344.241640625-11.72  348.831640625-12.89L 348.831640625-12.89L 352.051640625-27.49L 339.011640625-27.49ZM 407.90578125-45.02L 407.90578125-45.02Q 403.61578125-45.02  399.80578125-41.11Q 395.99578125-37.21  394.82578125-31.59L 394.82578125-31.59L 397.02578125-31.59Q 404.58578125-31.59  408.81578125-33.96Q 413.03578125-36.33  413.03578125-40.38L 413.03578125-40.38Q 413.03578125-45.02  407.90578125-45.02ZM 399.90578125 0.98L 399.90578125 0.98Q 389.64578125 0.98  383.98578125-4.54Q 378.31578125-10.06  378.31578125-20.12L 378.31578125-20.12Q 378.31578125-30.22  382.34578125-38.55Q 386.37578125-46.88  393.26578125-51.25Q 400.14578125-55.62  408.83578124999997-55.62L 408.83578124999997-55.62Q 417.47578125-55.62  422.31578125-51.64Q 427.14578125-47.66  427.14578125-40.72L 427.14578125-40.72Q 427.14578125-31.59  418.99578125-26.64Q 410.83578124999997-21.68  395.70578125-21.68L 395.70578125-21.68L 393.21578125-21.68L 393.11578125-20.65L 393.11578125-19.68Q 393.11578125-15.23  395.62578125-12.67Q 398.14578125-10.11  402.83578125-10.11L 402.83578125-10.11Q 407.07578125-10.11  410.54578125-11.04Q 414.01578125000003-11.96  418.94578125-14.31L 418.94578125-14.31L 418.94578125-3.22Q 410.54578125 0.98  399.90578125 0.98ZM 449.458671875 0.98L 449.458671875 0.98Q 442.288671875 0.98  438.158671875-4.22Q 434.028671875-9.42  434.028671875-18.8L 434.028671875-18.8Q 434.028671875-28.47  437.548671875-37.23Q 441.068671875-46  446.778671875-50.81Q 452.488671875-55.62  459.328671875-55.62L 459.328671875-55.62Q 464.058671875-55.62  467.508671875-53.56Q 470.948671875-51.51  472.848671875-47.61L 472.848671875-47.61L 473.238671875-47.61L 476.028671875-54.59L 487.348671875-54.59L 475.72867187500003 0L 464.54867187499997 0L 465.238671875-7.08L 465.038671875-7.08Q 458.498671875 0.98  449.458671875 0.98ZM 455.228671875-10.89L 455.228671875-10.89Q 458.598671875-10.89  461.718671875-14.16Q 464.848671875-17.43  466.748671875-23.02Q 468.648671875-28.61  468.648671875-35.69L 468.648671875-35.69Q 468.648671875-39.16  466.768671875-41.43Q 464.888671875-43.7  461.818671875-43.7L 461.818671875-43.7Q 458.498671875-43.7  455.488671875-40.19Q 452.488671875-36.67  450.708671875-30.91Q 448.928671875-25.15  448.928671875-19.48L 448.928671875-19.48Q 448.928671875-15.19  450.558671875-13.04Q 452.198671875-10.89  455.228671875-10.89ZM 530.1725-55.62L 530.1725-55.62Q 533.0525-55.62  534.8625-55.08L 534.8625-55.08L 531.6425-40.92Q 529.4425-41.7  526.7625-41.7L 526.7625-41.7Q 521.0925-41.7  516.8225-37.23Q 512.5525-32.76  510.7425-24.41L 510.7425-24.41L 505.5625 0L 490.8725 0L 502.4425-54.59L 513.6725-54.59L 512.6425-44.48L 512.9425-44.48Q 520.1125-55.62  530.1725-55.62Z" transform="matrix(0.6109916567802429, 0, 0, 0.6109916567802429, 213.66815185546875, 244.9578399658203)" xlink:href=""/>
</svg>